<svg xmlns="http://www.w3.org/2000/svg" xmlns:xlink="http://www.w3.org/1999/xlink" width="37.735" height="33.962" viewBox="0 0 37.735 33.962">
  <defs>
    <linearGradient id="linear-gradient" x1="0.5" x2="0.5" y2="2.727" gradientUnits="objectBoundingBox">
      <stop offset="0" stop-color="#5edbe5"/>
      <stop offset="1" stop-color="#2f6e73"/>
    </linearGradient>
  </defs>
  <g id="bx-history" transform="translate(-3 -4.5)">
    <path id="Tracé_70" data-name="Tracé 70" d="M18,12v9.434h9.434V17.66h-5.66V12Z" transform="translate(3.868 1.934)" fill="url(#linear-gradient)"/>
    <path id="Tracé_71" data-name="Tracé 71" d="M39.4,14.871A17,17,0,0,0,27.177,4.845a17.151,17.151,0,0,0-6.841,0A16.968,16.968,0,0,0,6.774,21.481l0,.048H3l5.66,7.5,5.66-7.5H10.55l0-.047A13.126,13.126,0,0,1,12.8,14.1a13.209,13.209,0,0,1,23.894,4.716,13.427,13.427,0,0,1,0,5.328,13.226,13.226,0,0,1-3.6,6.678,13.317,13.317,0,0,1-4.2,2.833,13.169,13.169,0,0,1-2.478.77,13.428,13.428,0,0,1-5.326,0,13.125,13.125,0,0,1-4.719-1.986,13.332,13.332,0,0,1-1.956-1.613L11.75,33.492A16.984,16.984,0,0,0,39.4,14.871Z" transform="translate(0 0)" fill="url(#linear-gradient)"/>
  </g>
</svg>
