<svg xmlns="http://www.w3.org/2000/svg" xmlns:xlink="http://www.w3.org/1999/xlink" width="54.471" height="54.764" viewBox="0 0 54.471 54.764">
  <defs>
    <linearGradient id="linear-gradient" x1="0.5" x2="0.5" y2="1" gradientUnits="objectBoundingBox">
      <stop offset="0" stop-color="#5edbe5"/>
      <stop offset="0.209" stop-color="#53c1ca"/>
      <stop offset="1" stop-color="#2f6e73"/>
    </linearGradient>
    <linearGradient id="linear-gradient-2" x1="0.5" x2="0.5" y2="1" gradientUnits="objectBoundingBox">
      <stop offset="0" stop-color="#5edbe5"/>
      <stop offset="0.51" stop-color="#3f9299"/>
      <stop offset="1" stop-color="#2f6e73"/>
    </linearGradient>
    <linearGradient id="linear-gradient-3" x1="0.5" x2="0.5" y2="1" gradientUnits="objectBoundingBox">
      <stop offset="0" stop-color="#5edbe5"/>
      <stop offset="0.318" stop-color="#3b8990"/>
      <stop offset="1" stop-color="#2f6e73"/>
    </linearGradient>
    <linearGradient id="linear-gradient-4" x1="0.5" x2="0.5" y2="1" gradientUnits="objectBoundingBox">
      <stop offset="0" stop-color="#5edbe5"/>
      <stop offset="0.853" stop-color="#3b8a91"/>
      <stop offset="1" stop-color="#2f6e73"/>
    </linearGradient>
    <linearGradient id="linear-gradient-5" x1="0.5" x2="0.5" y2="1" gradientUnits="objectBoundingBox">
      <stop offset="0" stop-color="#5edbe5"/>
      <stop offset="0.331" stop-color="#5cd7e1"/>
      <stop offset="0.983" stop-color="#45a1a8"/>
      <stop offset="0.992" stop-color="#40969d"/>
      <stop offset="1" stop-color="#439da4"/>
      <stop offset="1" stop-color="#2f6e73"/>
    </linearGradient>
  </defs>
  <g id="logo" transform="translate(-107 -906)">
    <g id="Logo-2" data-name="Logo" transform="translate(109.79 910.052)">
      <path id="Tracé_48" data-name="Tracé 48" d="M11.557,34.3s1.31-28,1.033-29.574A4.747,4.747,0,0,0,10.738,1.2C9.1.023,7.843,0,6.017,0A7.022,7.022,0,0,0,2.685.648,4.581,4.581,0,0,0,.741,2.5L0,4.073" transform="matrix(0.035, 0.999, -0.999, 0.035, 48.367, 16.687)" fill="url(#linear-gradient)"/>
      <path id="Tracé_47" data-name="Tracé 47" d="M641.118,2099.6s.278-31.254,0-32.828a4.747,4.747,0,0,0-1.851-3.518c-1.643-1.18-2.9-1.2-4.721-1.2a7.024,7.024,0,0,0-3.333.648,4.58,4.58,0,0,0-1.944,1.851l-.741,1.574" transform="translate(-610.194 -2062.052)" fill="url(#linear-gradient-2)"/>
      <path id="Tracé_49" data-name="Tracé 49" d="M12.59,41.344s.278-35.049,0-36.623A4.747,4.747,0,0,0,10.738,1.2C9.1.023,7.843,0,6.017,0A7.022,7.022,0,0,0,2.685.648,4.581,4.581,0,0,0,.741,2.5L0,4.073" transform="translate(31.472 46.448) rotate(-180)" fill="url(#linear-gradient-3)"/>
      <path id="Tracé_50" data-name="Tracé 50" d="M12.172,35.344s.553-29.049.275-30.622A4.746,4.746,0,0,0,10.6,1.2C8.952.023,7.7,0,5.874,0A7.022,7.022,0,0,0,2.541.648,4.581,4.581,0,0,0,.6,2.5L0,4.365" transform="matrix(0.017, -1, 1, 0.017, 0, 28.495)" fill="url(#linear-gradient-4)"/>
      <path id="Tracé_43" data-name="Tracé 43" d="M0,2.394S4.234,5.518,13.029,5.518A19.406,19.406,0,0,0,15.92,5.3,36.646,36.646,0,0,0,29.471,0s-3.4,2.329-3.4,10.466,5.2,18.734,5.2,18.734-2.591-4.489-11.387-4.489C11.991,24.711,2.4,29.924.51,31c-.194.11-.308.178-.308.178S6.48,26.312,5.989,18.289,0,2.394,0,2.394Z" transform="translate(19.567 1.651) rotate(31)" fill="url(#linear-gradient-5)"/>
    </g>
    <g id="Icon_consultation_imm" data-name="Icon consultation imm" transform="translate(-67.538 79)">
      <g id="Tracé_5" data-name="Tracé 5" transform="translate(174.538 827)" fill="none">
        <path d="M27.235,0A27.382,27.382,0,1,1,0,27.382,27.309,27.309,0,0,1,27.235,0Z" stroke="none"/>
        <path d="M 27.23538208007813 1.299995422363281 C 23.73442268371582 1.299995422363281 20.33881378173828 1.989086151123047 17.14286041259766 3.348125457763672 C 14.05484390258789 4.661277770996094 11.28112030029297 6.541557312011719 8.898761749267578 8.936725616455078 C 6.515922546386719 11.3323860168457 4.64520263671875 14.12187576293945 3.338573455810547 17.22771835327148 C 1.985870361328125 20.44304656982422 1.300003051757813 23.85939598083496 1.300003051757813 27.38185691833496 C 1.300003051757813 30.90431785583496 1.985870361328125 34.3206672668457 3.338573455810547 37.53599548339844 C 4.64520263671875 40.64183807373047 6.515922546386719 43.43132781982422 8.898761749267578 45.82698822021484 C 11.28112030029297 48.2221565246582 14.05484390258789 50.10243606567383 17.14286041259766 51.41558837890625 C 20.33881378173828 52.77462768554688 23.73442268371582 53.46371841430664 27.23538208007813 53.46371841430664 C 30.73634147644043 53.46371841430664 34.13195037841797 52.77462768554688 37.32790374755859 51.41558837890625 C 40.41592407226563 50.10243606567383 43.18964385986328 48.2221565246582 45.57200241088867 45.82698822021484 C 47.95484161376953 43.43132781982422 49.8255615234375 40.64183807373047 51.1321907043457 37.53599548339844 C 52.48489379882813 34.3206672668457 53.17076110839844 30.90431785583496 53.17076110839844 27.38185691833496 C 53.17076110839844 23.85939598083496 52.48489379882813 20.44304656982422 51.1321907043457 17.22771835327148 C 49.8255615234375 14.12187576293945 47.95484161376953 11.3323860168457 45.57200241088867 8.936725616455078 C 43.18964385986328 6.541557312011719 40.41592407226563 4.661277770996094 37.32790374755859 3.348125457763672 C 34.13195037841797 1.989086151123047 30.73634147644043 1.299995422363281 27.23538208007813 1.299995422363281 M 27.23538208007813 -3.814697265625e-06 C 42.27707290649414 -3.814697265625e-06 54.47076034545898 12.25927734375 54.47076034545898 27.38185691833496 C 54.47076034545898 42.50443649291992 42.27707290649414 54.76371765136719 27.23538208007813 54.76371765136719 C 12.19369125366211 54.76371765136719 3.814697265625e-06 42.50443649291992 3.814697265625e-06 27.38185691833496 C 3.814697265625e-06 12.25927734375 12.19369125366211 -3.814697265625e-06 27.23538208007813 -3.814697265625e-06 Z" stroke="none" fill="#58c2cb"/>
      </g>
    </g>
    <g id="home-solid" transform="translate(125.94 922.991)">
      <path id="Tracé_70" data-name="Tracé 70" d="M15.514,9.4a.435.435,0,0,1-.309-.126L8.991,3.053,2.777,9.272a.435.435,0,0,1-.613-.613L8.687,2.136a.435.435,0,0,1,.613,0l6.523,6.523a.435.435,0,0,1-.309.739Z" fill="#fff"/>
      <path id="Tracé_71" data-name="Tracé 71" d="M11.218,7.79,6,13.026v5.292a.87.87,0,0,0,.87.87H9.914V14.839h2.609v4.349h3.044a.87.87,0,0,0,.87-.87V13Z" transform="translate(-2.227 -3.267)" fill="#fff"/>
    </g>
  </g>
</svg>
