<svg xmlns="http://www.w3.org/2000/svg" xmlns:xlink="http://www.w3.org/1999/xlink" width="37.65" height="34.962" viewBox="0 0 37.65 34.962">
  <defs>
    <linearGradient id="linear-gradient" x1="0.5" y1="0.206" x2="0.5" y2="2.043" gradientUnits="objectBoundingBox">
      <stop offset="0" stop-color="#5edbe5"/>
      <stop offset="1" stop-color="#2f6e73"/>
    </linearGradient>
  </defs>
  <path id="pulse" d="M35.866,22.2a4.041,4.041,0,0,0-3.8,2.689h-3.3l-2.382-7.149a1.345,1.345,0,0,0-2.569.055l-3.741,13.09L15.677,4.5a1.345,1.345,0,0,0-2.631-.105l-5.123,20.5H3.595a1.345,1.345,0,0,0,0,2.689H8.973a1.345,1.345,0,0,0,1.3-1.018l3.81-15.243L18.4,37.212a1.345,1.345,0,0,0,1.251,1.124h.076a1.345,1.345,0,0,0,1.292-.975l4.186-14.646,1.315,3.944a1.345,1.345,0,0,0,1.274.92h4.265a4.034,4.034,0,1,0,3.8-5.379Z" transform="translate(-2.25 -3.374)" fill="url(#linear-gradient)"/>
</svg>
