<svg id="_3410597" data-name="3410597" xmlns="http://www.w3.org/2000/svg" xmlns:xlink="http://www.w3.org/1999/xlink" width="33" height="34.733" viewBox="0 0 33 34.733">
  <defs>
    <linearGradient id="linear-gradient" x1="0.5" x2="0.5" y2="2.104" gradientUnits="objectBoundingBox">
      <stop offset="0" stop-color="#5edbe5"/>
      <stop offset="1" stop-color="#2f6e73"/>
    </linearGradient>
    <linearGradient id="linear-gradient-2" x2="0.5" y2="1" xlink:href="#linear-gradient"/>
  </defs>
  <path id="Tracé_65" data-name="Tracé 65" d="M60.141,29.576H58.084a.586.586,0,0,0-.065,0,4.011,4.011,0,0,0-.966-.862,6.577,6.577,0,0,0-3.551-.964,7.175,7.175,0,0,0-2.245.348.5.5,0,0,0-.333.65.555.555,0,0,0,.694.312,6.024,6.024,0,0,1,1.884-.29c2.189,0,4.038,1.131,4.038,2.47s-1.849,2.47-4.038,2.47-4.038-1.131-4.038-2.47a1.741,1.741,0,0,1,.5-1.175.487.487,0,0,0-.066-.718.571.571,0,0,0-.767.062,2.874,2.874,0,0,0-.7,1.321h-8.67a4.366,4.366,0,0,1-4.5-4.209,4.333,4.333,0,0,1,4.317-4.206l.035,0a.575.575,0,0,0,.061,0H53.142a7.973,7.973,0,0,0,8.214-7.687,7.4,7.4,0,0,0-2.3-5.332,8.432,8.432,0,0,0-5.575-2.348A2.358,2.358,0,0,0,51.6,5.235a.583.583,0,0,0-.15-.008V3.087A3.124,3.124,0,0,0,49.135.139,3.494,3.494,0,0,0,48.155,0h-16.5a3.2,3.2,0,0,0-3.3,3.087v9.934a3.2,3.2,0,0,0,3.3,3.087h1.506a.511.511,0,1,0,0-1.019H31.655a2.144,2.144,0,0,1-2.209-2.067V3.087a2.144,2.144,0,0,1,2.209-2.067H45.424V5.272a2.892,2.892,0,0,0-2.478,2.782,2.892,2.892,0,0,0,2.478,2.781v4.253H35.339a.511.511,0,1,0,0,1.019H48.155a3.2,3.2,0,0,0,3.3-3.087V9.694a.579.579,0,0,0,.074-.006,2.35,2.35,0,0,0,1.953-1.715,7.31,7.31,0,0,1,4.793,2.034,6.417,6.417,0,0,1,1.993,4.625A6.916,6.916,0,0,1,53.142,21.3H39.673a.6.6,0,0,0-.061,0,.567.567,0,0,0-.078,0,5.383,5.383,0,0,0-5.363,5.224,5.423,5.423,0,0,0,5.588,5.229h8.669a3.267,3.267,0,0,0,1.522,2.016,7.023,7.023,0,0,0,7.1,0,3.823,3.823,0,0,0,1.135-1.1h1.953a.528.528,0,0,0,.545-.51V30.086A.528.528,0,0,0,60.141,29.576ZM44.035,8.054a1.938,1.938,0,0,1,3.867,0,1.938,1.938,0,0,1-3.867,0Zm6.33,4.967a2.144,2.144,0,0,1-2.209,2.067H46.513V10.835a2.891,2.891,0,0,0,2.478-2.781,2.892,2.892,0,0,0-2.478-2.782V1.019h1.642a2.316,2.316,0,0,1,1.052.25q.094.048.182.1t.17.119a2.016,2.016,0,0,1,.8,1.595Zm1.089-4.359V6.249a1.227,1.227,0,0,1,0,2.413ZM59.6,31.653h-1a2.429,2.429,0,0,0-.052-1.057H59.6v1.057Z" transform="translate(-28.356 0)" fill="url(#linear-gradient)"/>
  <path id="Tracé_66" data-name="Tracé 66" d="M370.109,436.437V434.2a.477.477,0,1,0-.954,0v2.232a.477.477,0,1,0,.954,0Z" transform="translate(-344.303 -403.919)" fill="url(#linear-gradient-2)"/>
  <path id="Tracé_67" data-name="Tracé 67" d="M83.29,72.875h5.893a.477.477,0,1,0,0-.954H83.29a.477.477,0,1,0,0,.954Z" transform="translate(-79.351 -67.349)" fill="url(#linear-gradient-2)"/>
  <path id="Tracé_68" data-name="Tracé 68" d="M83.29,115.175h5.893a.477.477,0,1,0,0-.954H83.29a.477.477,0,1,0,0,.954Z" transform="translate(-79.351 -106.445)" fill="url(#linear-gradient-2)"/>
  <path id="Tracé_69" data-name="Tracé 69" d="M83.29,157.475h5.893a.477.477,0,1,0,0-.954H83.29a.477.477,0,1,0,0,.954Z" transform="translate(-79.351 -145.865)" fill="url(#linear-gradient-2)"/>
</svg>
